<svg width="135" height="124" viewBox="0 0 135 124" fill="none" xmlns="http://www.w3.org/2000/svg">
<path d="M17.1704 51.8711C17.3579 52.0586 17.6123 52.1639 17.8774 52.1639C18.1426 52.1639 18.3969 52.0586 18.5844 51.8711L19.3513 51.1041L20.1181 51.8711C20.2104 51.9666 20.3207 52.0428 20.4427 52.0952C20.5647 52.1476 20.696 52.1752 20.8287 52.1763C20.9615 52.1775 21.0932 52.1522 21.2161 52.1019C21.339 52.0516 21.4506 51.9773 21.5445 51.8834C21.6384 51.7895 21.7126 51.6779 21.7629 51.555C21.8132 51.4321 21.8385 51.3004 21.8373 51.1676C21.8362 51.0348 21.8086 50.9036 21.7561 50.7816C21.7037 50.6596 21.6275 50.5493 21.532 50.457L20.765 49.6899L21.532 48.9227C21.7148 48.7342 21.8162 48.4814 21.8142 48.2188C21.8122 47.9563 21.707 47.705 21.5213 47.5193C21.3356 47.3337 21.0844 47.2285 20.8218 47.2265C20.5592 47.2245 20.3064 47.3259 20.1179 47.5087L19.3511 48.2756L18.5842 47.5087C18.492 47.4132 18.3816 47.337 18.2596 47.2846C18.1376 47.2322 18.0064 47.2046 17.8736 47.2035C17.7408 47.2023 17.6092 47.2276 17.4863 47.2779C17.3634 47.3282 17.2517 47.4024 17.1578 47.4963C17.0639 47.5902 16.9897 47.7019 16.9394 47.8248C16.8891 47.9477 16.8638 48.0793 16.865 48.2121C16.8661 48.3449 16.8937 48.4761 16.9461 48.5981C16.9985 48.7201 17.0747 48.8305 17.1702 48.9227L17.9371 49.6898L17.1702 50.4569C16.9827 50.6445 16.8774 50.8988 16.8774 51.1641C16.8775 51.4293 16.9829 51.6836 17.1704 51.8711Z" fill="#1f2937"/>
<path d="M69.832 87.0527C69.2387 87.0527 68.6586 87.2287 68.1653 87.5583C67.6719 87.8879 67.2874 88.3565 67.0604 88.9047C66.8333 89.4528 66.7739 90.056 66.8896 90.638C67.0054 91.2199 67.2911 91.7545 67.7107 92.174C68.1302 92.5936 68.6648 92.8793 69.2467 92.9951C69.8287 93.1108 70.4319 93.0514 70.9801 92.8243C71.5282 92.5973 71.9968 92.2128 72.3264 91.7194C72.6561 91.2261 72.832 90.646 72.832 90.0527C72.8311 89.2573 72.5148 88.4948 71.9524 87.9323C71.3899 87.3699 70.6274 87.0536 69.832 87.0527ZM69.832 91.0527C69.6342 91.0527 69.4409 90.9941 69.2764 90.8842C69.112 90.7743 68.9838 90.6181 68.9081 90.4354C68.8324 90.2527 68.8126 90.0516 68.8512 89.8576C68.8898 89.6636 68.985 89.4854 69.1249 89.3456C69.2647 89.2057 69.4429 89.1105 69.6369 89.0719C69.8309 89.0333 70.032 89.0531 70.2147 89.1288C70.3974 89.2045 70.5536 89.3327 70.6635 89.4971C70.7734 89.6616 70.832 89.8549 70.832 90.0527C70.8317 90.3178 70.7262 90.572 70.5387 90.7594C70.3513 90.9469 70.0971 91.0524 69.832 91.0527Z" fill="#1f2937"/>
<path d="M26.832 88.0527C27.3843 88.0527 27.832 87.605 27.832 87.0527C27.832 86.5004 27.3843 86.0527 26.832 86.0527C26.2797 86.0527 25.832 86.5004 25.832 87.0527C25.832 87.605 26.2797 88.0527 26.832 88.0527Z" fill="#1f2937"/>
<path d="M34.832 54.0527C33.052 54.0527 31.3119 54.5805 29.8319 55.5695C28.3518 56.5584 27.1983 57.964 26.5171 59.6086C25.8359 61.2531 25.6577 63.0627 26.0049 64.8085C26.3522 66.5543 27.2094 68.158 28.468 69.4167C29.7267 70.6753 31.3304 71.5325 33.0762 71.8798C34.822 72.227 36.6316 72.0488 38.2762 71.3676C39.9207 70.6864 41.3263 69.5329 42.3152 68.0528C43.3042 66.5728 43.832 64.8327 43.832 63.0527C43.8294 60.6666 42.8803 58.3789 41.193 56.6917C39.5058 55.0044 37.2181 54.0554 34.832 54.0527ZM34.832 70.0527C33.7111 70.0558 32.606 69.789 31.61 69.2748C30.6141 68.7606 29.7566 68.0141 29.1101 67.0984C28.4636 66.1828 28.0471 65.1249 27.8958 64.0143C27.7446 62.9037 27.8629 61.773 28.241 60.7178C32.5921 59.8491 37.0719 59.8491 41.423 60.7178C41.8011 61.773 41.9195 62.9037 41.7682 64.0143C41.6169 65.1249 41.2004 66.1828 40.5539 67.0984C39.9074 68.0141 39.0499 68.7606 38.054 69.2748C37.058 69.789 35.9529 70.0558 34.832 70.0527Z" fill="#1f2937"/>
<path d="M46.832 72.0527H44.832C44.0364 72.0527 43.2733 72.3688 42.7107 72.9314C42.1481 73.494 41.832 74.2571 41.832 75.0527C41.832 75.8484 42.1481 76.6114 42.7107 77.174C43.2733 77.7366 44.0364 78.0527 44.832 78.0527H46.832C47.6277 78.0527 48.3907 77.7366 48.9533 77.174C49.5159 76.6114 49.832 75.8484 49.832 75.0527C49.832 74.2571 49.5159 73.494 48.9533 72.9314C48.3907 72.3688 47.6277 72.0527 46.832 72.0527Z" fill="#1f2937"/>
<path d="M34.832 64.0527C35.3843 64.0527 35.832 63.605 35.832 63.0527C35.832 62.5004 35.3843 62.0527 34.832 62.0527C34.2797 62.0527 33.832 62.5004 33.832 63.0527C33.832 63.605 34.2797 64.0527 34.832 64.0527Z" fill="#1f2937"/>
<path d="M65.832 63.0527C65.832 61.2727 65.3042 59.5326 64.3152 58.0526C63.3263 56.5725 61.9207 55.419 60.2762 54.7378C58.6316 54.0566 56.822 53.8784 55.0762 54.2256C53.3304 54.5729 51.7267 55.4301 50.468 56.6887C49.2094 57.9474 48.3522 59.5511 48.0049 61.2969C47.6577 63.0427 47.8359 64.8523 48.5171 66.4969C49.1983 68.1414 50.3518 69.547 51.8319 70.5359C53.3119 71.5249 55.052 72.0527 56.832 72.0527C59.2181 72.0501 61.5058 71.101 63.193 69.4137C64.8803 67.7265 65.8294 65.4388 65.832 63.0527ZM56.832 70.0527C55.7111 70.0558 54.606 69.789 53.61 69.2748C52.6141 68.7606 51.7566 68.0141 51.1101 67.0985C50.4636 66.1828 50.0471 65.125 49.8958 64.0143C49.7446 62.9037 49.863 61.773 50.241 60.7178C54.5921 59.8491 59.0719 59.8491 63.423 60.7178C63.8011 61.773 63.9195 62.9037 63.7682 64.0143C63.6169 65.125 63.2004 66.1828 62.5539 67.0985C61.9074 68.0141 61.0499 68.7606 60.054 69.2748C59.058 69.789 57.9529 70.0558 56.832 70.0527Z" fill="#1f2937"/>
<path d="M56.832 64.0527C57.3843 64.0527 57.832 63.605 57.832 63.0527C57.832 62.5004 57.3843 62.0527 56.832 62.0527C56.2797 62.0527 55.832 62.5004 55.832 63.0527C55.832 63.605 56.2797 64.0527 56.832 64.0527Z" fill="#1f2937"/>
<path d="M73.932 76.0576L68.2956 75.4939C68.5197 74.8996 68.718 74.2932 68.8951 73.6776L73.9564 73.0449C74.2169 73.009 74.4528 72.8718 74.613 72.6632C74.7731 72.4546 74.8446 72.1913 74.812 71.9303C74.7794 71.6693 74.6453 71.4317 74.4387 71.2689C74.2322 71.1061 73.9698 71.0312 73.7084 71.0605L69.3948 71.5997C70.1959 67.4649 69.8933 63.1921 68.5175 59.2115C67.1417 55.2309 64.7413 51.6831 61.558 48.9254C61.1307 46.023 60.1847 40.7789 58.664 38.498C58.5424 38.3153 58.3641 38.1778 58.1565 38.1066C57.949 38.0354 57.7237 38.0345 57.5156 38.104C57.1956 38.2108 54.5869 39.2252 52.5389 44.0199C48.1566 42.7584 43.5074 42.7584 39.1251 44.0199C37.0771 39.2252 34.4685 38.2108 34.1484 38.104C33.9403 38.0344 33.715 38.0352 33.5075 38.1064C33.2999 38.1777 33.1215 38.3153 33 38.498C31.479 40.7792 30.5329 46.0245 30.1057 48.9268L30.0913 48.935C26.9128 51.6938 24.5166 55.2408 23.1435 59.2193C21.7705 63.1979 21.4691 67.4677 22.2696 71.5997L17.956 71.0605C17.8249 71.0424 17.6914 71.0505 17.5634 71.0844C17.4354 71.1183 17.3155 71.1773 17.2104 71.2579C17.1054 71.3385 17.0174 71.4392 16.9516 71.5541C16.8858 71.6689 16.8435 71.7957 16.8271 71.9271C16.8106 72.0585 16.8205 72.1918 16.856 72.3194C16.8915 72.4469 16.952 72.5661 17.0339 72.6701C17.1159 72.7741 17.2177 72.8608 17.3334 72.9251C17.4491 72.9895 17.5764 73.0302 17.708 73.0449L22.7693 73.6776C22.9464 74.2932 23.1447 74.8996 23.3688 75.4939L17.732 76.0576C17.4696 76.0858 17.229 76.2167 17.0626 76.4216C16.8963 76.6265 16.8177 76.8889 16.844 77.1515C16.8702 77.4141 16.9993 77.6557 17.203 77.8235C17.4066 77.9914 17.6684 78.072 17.9312 78.0476L24.1899 77.4218C24.5226 78.1136 24.8871 78.7863 25.2834 79.4399L23.4805 80.116C23.3575 80.1621 23.2448 80.232 23.1489 80.3217C23.0529 80.4113 22.9755 80.519 22.9211 80.6386C22.8668 80.7581 22.8365 80.8872 22.832 81.0185C22.8276 81.1498 22.849 81.2806 22.8951 81.4036C22.9412 81.5266 23.0111 81.6393 23.1008 81.7353C23.1904 81.8312 23.2981 81.9086 23.4177 81.963C23.6591 82.0728 23.9343 82.0821 24.1827 81.989L26.4246 81.1483C28.6468 84.2152 31.5641 86.7118 34.9375 88.4334C38.3109 90.1549 42.0443 91.0525 45.8316 91.0525C49.6189 91.0525 53.3523 90.1549 56.7257 88.4334C60.0991 86.7118 63.0165 84.2152 65.2386 81.1483L67.4805 81.989C67.6035 82.0351 67.7344 82.0566 67.8656 82.0521C67.9969 82.0476 68.126 82.0173 68.2456 81.963C68.3651 81.9086 68.4728 81.8312 68.5625 81.7353C68.6521 81.6393 68.722 81.5266 68.7681 81.4036C68.8142 81.2806 68.8357 81.1498 68.8312 81.0185C68.8267 80.8872 68.7964 80.7581 68.7421 80.6386C68.6877 80.519 68.6103 80.4113 68.5144 80.3217C68.4184 80.232 68.3057 80.1621 68.1827 80.116L66.3798 79.4399C66.775 78.7866 67.1395 78.1139 67.4733 77.4218L73.732 78.0476C73.7662 78.051 73.7994 78.0525 73.8326 78.0525C74.089 78.0521 74.3354 77.9533 74.521 77.7765C74.7066 77.5997 74.8172 77.3583 74.8299 77.1023C74.8427 76.8462 74.7566 76.5951 74.5895 76.4007C74.4224 76.2063 74.1871 76.0835 73.932 76.0576ZM64.4688 78.7232L60.1835 77.1162C60.0605 77.0701 59.9297 77.0487 59.7984 77.0531C59.6671 77.0576 59.538 77.0879 59.4185 77.1422C59.2989 77.1966 59.1912 77.274 59.1016 77.37C59.0119 77.4659 58.942 77.5786 58.8959 77.7016C58.8028 77.95 58.8122 78.2252 58.9219 78.4667C59.0317 78.7081 59.2329 78.8961 59.4813 78.9892L63.2907 80.4177C61.2406 83.1025 58.5989 85.2783 55.5709 86.776C52.543 88.2736 49.2105 89.0527 45.8324 89.0527C42.4544 89.0527 39.1218 88.2736 36.0939 86.776C33.066 85.2783 30.4242 83.1025 28.3741 80.4177L32.1835 78.9892C32.4319 78.8961 32.6331 78.7081 32.7429 78.4667C32.8527 78.2252 32.862 77.95 32.7689 77.7016C32.6758 77.4532 32.4878 77.252 32.2464 77.1422C32.0049 77.0325 31.7297 77.0231 31.4813 77.1162L27.196 78.7232C26.8866 78.2309 26.5966 77.7259 26.326 77.2084L27.932 77.0478C28.1944 77.0196 28.435 76.8887 28.6014 76.6838C28.7678 76.4789 28.8464 76.2166 28.8201 75.9539C28.7938 75.6913 28.6647 75.4497 28.4611 75.2819C28.2574 75.114 27.9956 75.0335 27.7328 75.0578L25.4373 75.2878C25.2594 74.8488 25.0956 74.403 24.9459 73.9503L33.7084 75.0456C33.7499 75.0506 33.7917 75.053 33.8335 75.0527C34.0877 75.0522 34.3322 74.9548 34.5172 74.7805C34.7022 74.6061 34.8139 74.3678 34.8295 74.1141C34.8451 73.8603 34.7635 73.6102 34.6012 73.4145C34.439 73.2188 34.2083 73.0922 33.956 73.0605L24.3679 71.862C23.5641 68.2919 23.6659 64.5775 24.6638 61.0568C25.6618 57.5361 27.5244 54.3208 30.082 51.7035C30.208 51.8515 30.3746 51.9592 30.5612 52.0134C30.7478 52.0675 30.9462 52.0658 31.1318 52.0083C31.3174 51.9508 31.4821 51.8401 31.6054 51.69C31.7287 51.5398 31.8053 51.3568 31.8256 51.1635C32.0692 48.974 32.9325 43.2406 34.2142 40.4364C35.1117 41.1205 36.6791 42.7564 37.8832 46.3695C37.9245 46.4943 37.99 46.6097 38.076 46.709C38.162 46.8084 38.2668 46.8898 38.3844 46.9486C38.5019 47.0073 38.6299 47.0423 38.761 47.0514C38.8921 47.0605 39.0237 47.0437 39.1483 47.0018C39.3692 46.9261 39.5561 46.7745 39.6757 46.5739C39.7953 46.3734 39.8399 46.137 39.8016 45.9066C43.7451 44.7962 47.9187 44.7962 51.8622 45.9066C51.8239 46.137 51.8685 46.3734 51.9881 46.5739C52.1078 46.7745 52.2946 46.9261 52.5155 47.0018C52.6401 47.0436 52.7717 47.0604 52.9028 47.0513C53.0339 47.0421 53.1618 47.0072 53.2794 46.9484C53.3969 46.8897 53.5017 46.8083 53.5877 46.7089C53.6737 46.6096 53.7393 46.4942 53.7806 46.3695C54.9867 42.7504 56.5575 41.1151 57.4491 40.4344C58.7308 43.2382 59.5941 48.9735 59.8382 51.1635C59.8653 51.4079 59.9814 51.6337 60.1644 51.7979C60.3474 51.9621 60.5845 52.0531 60.8304 52.0535C60.9736 52.0536 61.1151 52.0224 61.2449 51.962C61.3748 51.9017 61.4898 51.8136 61.582 51.704C64.1396 54.3214 66.0021 57.5367 67.0001 61.0575C67.998 64.5783 68.0998 68.2927 67.296 71.8628L57.708 73.0605C57.4558 73.0922 57.2251 73.2188 57.0628 73.4145C56.9006 73.6102 56.8189 73.8603 56.8345 74.1141C56.8501 74.3678 56.9618 74.6061 57.1468 74.7805C57.3318 74.9548 57.5763 75.0522 57.8305 75.0527C57.8725 75.0528 57.9144 75.0502 57.956 75.0449L66.7185 73.9496C66.5687 74.4021 66.4049 74.848 66.2271 75.2871L63.9316 75.0571C63.8004 75.043 63.6677 75.055 63.5412 75.0924C63.4147 75.1298 63.2968 75.1918 63.1944 75.275C63.0919 75.3582 63.007 75.4608 62.9444 75.5769C62.8818 75.6931 62.8428 75.8205 62.8296 75.9518C62.8165 76.0831 62.8294 76.2157 62.8678 76.3419C62.9061 76.4682 62.9691 76.5856 63.053 76.6874C63.1369 76.7892 63.2401 76.8734 63.3567 76.9352C63.4734 76.9969 63.601 77.0349 63.7324 77.0471L65.3381 77.2077C65.0677 77.7255 64.7782 78.2307 64.4688 78.7232Z" fill="#1f2937"/>
<path d="M122.64 39.2134C120.158 37.6124 118.587 38.3004 117.824 38.9214C116.969 38.3454 116.111 37.8624 115.26 37.5234C112.918 36.5894 109.111 36.0524 104.82 36.0524C100.527 36.0524 96.7216 36.5894 94.3786 37.5244C93.5276 37.8634 92.6676 38.3474 91.8126 38.9234C91.0476 38.3034 89.4796 37.6194 86.9996 39.2184C81.6206 42.6824 70.0976 41.3094 76.9186 56.2414C78.0146 58.6384 78.8586 60.3324 79.5996 61.2744C79.5316 69.9344 82.3846 81.2724 88.0496 84.9544C94.7926 89.3364 100.034 92.0524 105.32 92.0524C110.604 92.0524 115.846 89.3364 122.588 84.9534C128.334 81.2214 130.443 69.6794 130.127 61.1564C130.846 60.1954 131.668 58.5414 132.721 56.2364C139.541 41.3044 128.019 42.6774 122.64 39.2134ZM121.498 83.2774C115.062 87.4594 110.111 90.0524 105.32 90.0524C100.528 90.0524 95.5756 87.4594 89.1396 83.2774C84.3426 80.1594 81.6996 69.8094 81.6186 61.8034C82.5096 61.0104 83.4696 58.8104 84.8316 55.0584C85.9406 52.0004 85.9016 49.6964 86.1806 47.6274C88.7386 43.9544 92.0766 40.5964 95.1206 39.3814C97.2036 38.5494 100.831 38.0524 104.82 38.0524C108.809 38.0524 112.434 38.5494 114.52 39.3814C117.565 40.5964 120.905 43.9564 123.461 47.6314C123.738 49.6974 123.701 52.0004 124.809 55.0534C126.262 59.0534 127.256 61.2894 128.198 61.9344C128.394 70.0284 126.22 80.2094 121.498 83.2774Z" fill="#1f2937"/>
<path d="M97.0686 62.7834C97.0686 59.1924 94.1526 56.2714 90.5686 56.2714C86.9846 56.2714 84.0686 59.1924 84.0686 62.7834C84.0686 66.3754 86.9846 69.2974 90.5686 69.2974C94.1526 69.2974 97.0686 66.3754 97.0686 62.7834ZM86.4986 66.4794C87.2508 67.0093 88.1485 67.2937 89.0686 67.2934C91.5536 67.2934 93.5686 65.2754 93.5686 62.7834C93.5697 61.5888 93.0962 60.4426 92.2523 59.5971C91.4084 58.7515 90.2633 58.2757 89.0686 58.2744C88.1106 58.2744 87.2276 58.5794 86.4976 59.0904C87.0107 58.5186 87.6382 58.0612 88.3396 57.7478C89.041 57.4344 89.8004 57.2721 90.5686 57.2714C93.6006 57.2714 96.0686 59.7444 96.0686 62.7834C96.0686 65.8234 93.6006 68.2974 90.5686 68.2974C89.8007 68.2967 89.0415 68.1345 88.3403 67.8213C87.6391 67.5081 87.0116 67.0509 86.4986 66.4794Z" fill="#1f2937"/>
<path d="M119.07 56.2714C115.486 56.2714 112.57 59.1924 112.57 62.7834C112.57 66.3754 115.486 69.2974 119.07 69.2974C122.654 69.2974 125.57 66.3754 125.57 62.7834C125.57 59.1934 122.654 56.2714 119.07 56.2714ZM119.07 68.2974C116.039 68.2974 113.57 65.8234 113.57 62.7834C113.57 59.7444 116.039 57.2714 119.07 57.2714C120.685 57.2714 122.134 57.9764 123.142 59.0904C122.389 58.5597 121.491 58.2747 120.57 58.2744C119.375 58.2757 118.23 58.7515 117.386 59.5971C116.542 60.4426 116.069 61.5888 116.07 62.7834C116.069 63.375 116.185 63.9609 116.411 64.5078C116.636 65.0546 116.968 65.5516 117.386 65.9704C117.803 66.3892 118.3 66.7216 118.846 66.9486C119.392 67.1756 119.978 67.2927 120.57 67.2934C121.527 67.2934 122.412 66.9894 123.14 66.4794C122.627 67.051 121.999 67.5083 121.298 67.8215C120.597 68.1347 119.838 68.2969 119.07 68.2974Z" fill="#1f2937"/>
<path d="M113.875 66.8294C111.732 64.5984 108.432 63.3184 104.817 63.3184C101.205 63.3184 97.9066 64.5974 95.7696 66.8304L88.6236 74.3094C86.4176 76.6184 86.4176 80.3734 88.6236 82.6844C89.6976 83.8074 91.1296 84.4264 92.6546 84.4264C93.8992 84.4249 95.1067 84.0023 96.0806 83.2274L98.7976 86.0724C100.226 87.5594 102.421 88.4114 104.821 88.4114C107.22 88.4114 109.413 87.5584 110.837 86.0714L113.558 83.2254C114.531 84.0017 115.739 84.4251 116.984 84.4264C118.509 84.4264 119.941 83.8074 121.017 82.6834C123.22 80.3734 123.22 76.6184 121.017 74.3094L113.875 66.8294ZM110.115 85.3794C108.881 86.6704 106.949 87.4104 104.822 87.4104C102.692 87.4104 100.759 86.6704 99.5206 85.3804L96.8176 82.5494L99.4836 79.7604L100.542 78.6554C100.066 80.0454 99.8956 81.1924 100.047 82.0684C100.52 84.8294 102.785 86.0644 104.82 86.0644C106.856 86.0644 109.121 84.8294 109.594 82.0694C109.744 81.1914 109.574 80.0444 109.098 78.6514L112.823 82.5474L110.115 85.3794ZM120.293 81.9924C119.868 82.4444 119.355 82.8047 118.786 83.0513C118.217 83.2979 117.604 83.4256 116.984 83.4264C115.847 83.4264 114.781 82.9854 113.927 82.2094L113.874 82.1604C113.809 82.1017 113.742 82.0457 113.673 81.9924L107.327 75.3534L106.528 74.5164C106.104 74.0744 105.483 73.8204 104.82 73.8204C104.157 73.8204 103.536 74.0744 103.114 74.5154L102.313 75.3534L95.8936 82.0524C95.8488 82.0876 95.8051 82.1243 95.7626 82.1624L95.7126 82.2094C94.8596 82.9844 93.7936 83.4264 92.6546 83.4264C91.4046 83.4264 90.2296 82.9164 89.3466 81.9924C87.5046 80.0634 87.5046 76.9274 89.3466 74.9994L96.4926 67.5214C98.4406 65.4864 101.476 64.3184 104.817 64.3184C108.16 64.3184 111.199 65.4864 113.152 67.5204L120.293 74.9994C122.134 76.9274 122.134 80.0654 120.293 81.9924Z" fill="#1f2937"/>
<path d="M104.82 64.5634C101.563 64.5634 98.9216 65.0714 98.9216 67.7064C98.9216 69.8004 103.614 71.6574 104.82 71.6574C106.024 71.6574 110.719 69.8004 110.719 67.7064C110.718 65.0714 108.078 64.5634 104.82 64.5634Z" fill="#1f2937"/>
<path d="M98.1326 71.0534L97.1326 70.0514L96.1326 71.0554L97.1326 72.0574L98.1326 71.0534Z" fill="#1f2937"/>
<path d="M94.7516 74.8114L93.7516 73.8114L94.7526 72.8104L95.7526 73.8104L94.7516 74.8114Z" fill="#1f2937"/>
<path d="M96.8826 74.8134L97.8826 75.8154L98.8826 74.8114L97.8826 73.8094L96.8826 74.8134Z" fill="#1f2937"/>
<path d="M111.506 71.0534L112.506 72.0574L113.506 71.0554L112.506 70.0514L111.506 71.0534Z" fill="#1f2937"/>
<path d="M114.887 74.8104L113.887 73.8084L114.887 72.8094L115.887 73.8124L114.887 74.8104Z" fill="#1f2937"/>
<path d="M110.756 74.8114L111.756 75.8154L112.756 74.8134L111.756 73.8094L110.756 74.8114Z" fill="#1f2937"/>
<path d="M13.9097 24.6956C11.7153 23.5288 10.8823 20.8041 12.049 18.6097C13.2158 16.4153 15.9405 15.5823 18.1349 16.749C20.3293 17.9158 21.1623 20.6406 19.9956 22.8349C18.8288 25.0293 16.104 25.8623 13.9097 24.6956Z" stroke="#1f2937" stroke-width="2" stroke-linecap="round" stroke-linejoin="round"/>
<path d="M4.05726 25.1198C2.59431 24.3419 2.03897 22.5255 2.81683 21.0625C3.5947 19.5996 5.41114 19.0442 6.87409 19.8221C8.33705 20.6 8.89239 22.4164 8.11452 23.8794C7.33665 25.3423 5.52022 25.8977 4.05726 25.1198Z" stroke="#1f2937" stroke-width="2" stroke-linecap="round" stroke-linejoin="round"/>
<path d="M9.71244 31.5244C8.73713 31.0058 8.36691 29.7949 8.88548 28.8196C9.40406 27.8443 10.615 27.474 11.5903 27.9926C12.5656 28.5112 12.9359 29.7222 12.4173 30.6975C11.8987 31.6728 10.6877 32.043 9.71244 31.5244Z" stroke="#1f2937" stroke-width="2" stroke-linecap="round" stroke-linejoin="round"/>
<path d="M85.3193 105.052C82.834 105.052 80.8193 103.038 80.8193 100.552C80.8193 98.0671 82.834 96.0524 85.3193 96.0524C87.8046 96.0524 89.8193 98.0671 89.8193 100.552C89.8193 103.038 87.8046 105.052 85.3193 105.052Z" stroke="#1f2937" stroke-width="2" stroke-linecap="round" stroke-linejoin="round"/>
<path d="M76.8193 110.052C75.1624 110.052 73.8193 108.709 73.8193 107.052C73.8193 105.395 75.1624 104.052 76.8193 104.052C78.4762 104.052 79.8193 105.395 79.8193 107.052C79.8193 108.709 78.4762 110.052 76.8193 110.052Z" stroke="#1f2937" stroke-width="2" stroke-linecap="round" stroke-linejoin="round"/>
<path d="M84.8193 113.052C83.7147 113.052 82.8193 112.157 82.8193 111.052C82.8193 109.948 83.7147 109.052 84.8193 109.052C85.9239 109.052 86.8193 109.948 86.8193 111.052C86.8193 112.157 85.9239 113.052 84.8193 113.052Z" stroke="#1f2937" stroke-width="2" stroke-linecap="round" stroke-linejoin="round"/>
<path d="M104.4 109.953C103.31 112.186 100.616 113.114 98.3824 112.024C96.1486 110.935 95.221 108.241 96.3105 106.007C97.3999 103.773 100.094 102.846 102.328 103.935C104.561 105.025 105.489 107.719 104.4 109.953Z" stroke="#1f2937" stroke-width="2" stroke-linecap="round" stroke-linejoin="round"/>
<path d="M105.167 119.784C104.441 121.273 102.645 121.892 101.156 121.165C99.6667 120.439 99.0483 118.643 99.7747 117.154C100.501 115.665 102.297 115.046 103.786 115.773C105.275 116.499 105.894 118.295 105.167 119.784Z" stroke="#1f2937" stroke-width="2" stroke-linecap="round" stroke-linejoin="round"/>
<path d="M111.371 113.909C110.887 114.902 109.689 115.314 108.696 114.83C107.704 114.346 107.291 113.148 107.776 112.155C108.26 111.163 109.457 110.75 110.45 111.235C111.443 111.719 111.855 112.916 111.371 113.909Z" stroke="#1f2937" stroke-width="2" stroke-linecap="round" stroke-linejoin="round"/>
<path d="M48.2977 8.93046C50.6867 9.6155 52.0681 12.1075 51.383 14.4965C50.698 16.8855 48.206 18.2669 45.817 17.5818C43.428 16.8968 42.0466 14.4048 42.7317 12.0158C43.4167 9.62676 45.9087 8.24542 48.2977 8.93046Z" stroke="#1f2937" stroke-width="2" stroke-linecap="round" stroke-linejoin="round"/>
<path d="M57.8466 6.46706C59.4393 6.92377 60.3602 8.58505 59.9035 10.1778C59.4468 11.7705 57.7855 12.6913 56.1928 12.2346C54.6001 11.7779 53.6792 10.1167 54.1359 8.52394C54.5926 6.93122 56.2539 6.01036 57.8466 6.46706Z" stroke="#1f2937" stroke-width="2" stroke-linecap="round" stroke-linejoin="round"/>
<path d="M50.9834 1.37819C52.0453 1.68266 52.6592 2.79018 52.3547 3.85198C52.0502 4.91379 50.9427 5.5277 49.8809 5.22323C48.8191 4.91877 48.2052 3.81125 48.5096 2.74944C48.8141 1.68763 49.9217 1.07373 50.9834 1.37819Z" stroke="#1f2937" stroke-width="2" stroke-linecap="round" stroke-linejoin="round"/>
<path d="M125.621 102.232C123.2 101.673 121.69 99.2562 122.249 96.8346C122.808 94.4131 125.224 92.9032 127.646 93.4623C130.068 94.0213 131.577 96.4376 131.018 98.8592C130.459 101.281 128.043 102.791 125.621 102.232Z" stroke="#1f2937" stroke-width="2" stroke-linecap="round" stroke-linejoin="round"/>
<path d="M116.215 105.191C114.6 104.819 113.594 103.208 113.966 101.593C114.339 99.979 115.95 98.9724 117.564 99.3451C119.179 99.7179 120.185 101.329 119.813 102.943C119.44 104.558 117.829 105.564 116.215 105.191Z" stroke="#1f2937" stroke-width="2" stroke-linecap="round" stroke-linejoin="round"/>
<path d="M123.335 109.914C122.258 109.666 121.587 108.592 121.836 107.515C122.084 106.439 123.158 105.768 124.234 106.017C125.311 106.265 125.982 107.339 125.733 108.415C125.485 109.492 124.411 110.163 123.335 109.914Z" stroke="#1f2937" stroke-width="2" stroke-linecap="round" stroke-linejoin="round"/>
<path d="M33.8193 30.5524C33.8193 28.0671 35.8341 26.0524 38.3193 26.0524C40.8046 26.0524 42.8193 28.0671 42.8193 30.5524C42.8193 33.0377 40.8046 35.0524 38.3193 35.0524C35.8341 35.0524 33.8193 33.0377 33.8193 30.5524Z" stroke="#1f2937" stroke-width="2" stroke-linecap="round" stroke-linejoin="round"/>
<path d="M28.8193 22.0524C28.8193 20.3955 30.1624 19.0524 31.8193 19.0524C33.4762 19.0524 34.8193 20.3955 34.8193 22.0524C34.8193 23.7093 33.4762 25.0524 31.8193 25.0524C30.1624 25.0524 28.8193 23.7093 28.8193 22.0524Z" stroke="#1f2937" stroke-width="2" stroke-linecap="round" stroke-linejoin="round"/>
<path d="M25.8193 30.0524C25.8193 28.9478 26.7147 28.0524 27.8193 28.0524C28.9239 28.0524 29.8193 28.9478 29.8193 30.0524C29.8193 31.157 28.9239 32.0524 27.8193 32.0524C26.7147 32.0524 25.8193 31.157 25.8193 30.0524Z" stroke="#1f2937" stroke-width="2" stroke-linecap="round" stroke-linejoin="round"/>
</svg>
